<svg width="1747" height="945" viewBox="0 0 1747 945" fill="none" xmlns="http://www.w3.org/2000/svg">
<path d="M95.1363 295H0.960205V4.09092H98.1193C126.623 4.09092 151.102 9.91479 171.557 21.5625C192.011 33.1155 207.684 49.7349 218.574 71.4205C229.559 93.0114 235.051 118.911 235.051 149.119C235.051 179.422 229.511 205.464 218.432 227.244C207.447 249.025 191.538 265.786 170.705 277.528C149.871 289.176 124.682 295 95.1363 295ZM44.8523 256.648H92.7216C114.881 256.648 133.299 252.481 147.977 244.148C162.655 235.72 173.64 223.551 180.932 207.642C188.223 191.638 191.869 172.131 191.869 149.119C191.869 126.297 188.223 106.932 180.932 91.0228C173.735 75.1137 162.987 63.0398 148.687 54.8011C134.388 46.5625 116.633 42.4432 95.4204 42.4432H44.8523V256.648Z" fill="white"/>
<path d="M542.331 149.545C542.331 180.606 536.649 207.311 525.286 229.659C513.922 251.913 498.344 269.053 478.553 281.08C458.856 293.011 436.46 298.977 411.365 298.977C386.176 298.977 363.685 293.011 343.893 281.08C324.196 269.053 308.666 251.866 297.303 229.517C285.939 207.169 280.257 180.511 280.257 149.545C280.257 118.485 285.939 91.8277 297.303 69.5739C308.666 47.2254 324.196 30.0852 343.893 18.1534C363.685 6.12691 386.176 0.113647 411.365 0.113647C436.46 0.113647 458.856 6.12691 478.553 18.1534C498.344 30.0852 513.922 47.2254 525.286 69.5739C536.649 91.8277 542.331 118.485 542.331 149.545ZM498.865 149.545C498.865 125.871 495.03 105.938 487.359 89.7443C479.784 73.4565 469.367 61.1459 456.109 52.8125C442.946 44.3845 428.032 40.1705 411.365 40.1705C394.604 40.1705 379.642 44.3845 366.479 52.8125C353.316 61.1459 342.899 73.4565 335.229 89.7443C327.653 105.938 323.865 125.871 323.865 149.545C323.865 173.22 327.653 193.201 335.229 209.489C342.899 225.682 353.316 237.992 366.479 246.42C379.642 254.754 394.604 258.92 411.365 258.92C428.032 258.92 442.946 254.754 456.109 246.42C469.367 237.992 479.784 225.682 487.359 209.489C495.03 193.201 498.865 173.22 498.865 149.545Z" fill="white"/>
<path d="M597.054 295V4.09092H700.747C723.285 4.09092 741.988 7.9735 756.855 15.7386C771.817 23.5038 782.991 34.2519 790.378 47.983C797.764 61.6193 801.457 77.3864 801.457 95.2841C801.457 113.087 797.717 128.759 790.236 142.301C782.849 155.748 771.675 166.212 756.713 173.693C741.846 181.174 723.143 184.915 700.605 184.915H622.054V147.131H696.628C710.832 147.131 722.385 145.095 731.287 141.023C740.283 136.951 746.865 131.032 751.031 123.267C755.198 115.502 757.281 106.174 757.281 95.2841C757.281 84.2993 755.151 74.7822 750.889 66.733C746.722 58.6837 740.141 52.5284 731.145 48.2671C722.243 43.911 710.548 41.733 696.06 41.733H640.946V295H597.054ZM740.662 163.75L812.537 295H762.537L692.082 163.75H740.662Z" fill="white"/>
<path d="M1089.67 4.09092V295H1049.33L901.457 81.6478H898.758V295H854.866V4.09092H895.491L1043.5 217.727H1046.2V4.09092H1089.67Z" fill="white"/>
<path d="M1197.59 4.09092V295H1153.69V4.09092H1197.59Z" fill="white"/>
<path d="M1261.51 295V4.09092H1443.89V41.875H1305.4V130.511H1434.38V168.153H1305.4V257.216H1445.6V295H1261.51Z" fill="white"/>
<path d="M1502.52 295V4.09092H1606.22C1628.75 4.09092 1647.46 7.9735 1662.32 15.7386C1677.29 23.5038 1688.46 34.2519 1695.85 47.983C1703.23 61.6193 1706.93 77.3864 1706.93 95.2841C1706.93 113.087 1703.19 128.759 1695.7 142.301C1688.32 155.748 1677.14 166.212 1662.18 173.693C1647.31 181.174 1628.61 184.915 1606.07 184.915H1527.52V147.131H1602.1C1616.3 147.131 1627.85 145.095 1636.76 141.023C1645.75 136.951 1652.33 131.032 1656.5 123.267C1660.67 115.502 1662.75 106.174 1662.75 95.2841C1662.75 84.2993 1660.62 74.7822 1656.36 66.733C1652.19 58.6837 1645.61 52.5284 1636.61 48.2671C1627.71 43.911 1616.02 41.733 1601.53 41.733H1546.41V295H1502.52ZM1646.13 163.75L1718.01 295H1668.01L1597.55 163.75H1646.13Z" fill="white"/>
<path d="M8.15907 937V848.364L215.261 656.602C232.875 639.557 247.648 624.216 259.58 610.58C271.701 596.943 280.886 583.591 287.136 570.523C293.386 557.265 296.511 542.966 296.511 527.625C296.511 510.58 292.629 495.902 284.864 483.591C277.098 471.091 266.492 461.527 253.045 454.898C239.598 448.08 224.352 444.67 207.307 444.67C189.504 444.67 173.973 448.269 160.716 455.466C147.458 462.663 137.231 472.985 130.034 486.432C122.837 499.879 119.239 515.883 119.239 534.443H2.47725C2.47725 496.375 11.0947 463.326 28.3295 435.295C45.5644 407.265 69.7121 385.58 100.773 370.239C131.833 354.898 167.629 347.227 208.159 347.227C249.826 347.227 286.095 354.614 316.966 369.386C348.027 383.97 372.174 404.235 389.409 430.182C406.644 456.129 415.261 485.864 415.261 519.386C415.261 541.356 410.905 563.042 402.193 584.443C393.67 605.845 378.424 629.614 356.455 655.75C334.485 681.697 303.519 712.852 263.557 749.216L178.614 832.455V836.432H422.932V937H8.15907Z" fill="white"/>
<path d="M656.065 937V848.364L863.168 656.602C880.781 639.557 895.554 624.216 907.486 610.58C919.607 596.943 928.793 583.591 935.043 570.523C941.293 557.265 944.418 542.966 944.418 527.625C944.418 510.58 940.535 495.902 932.77 483.591C925.005 471.091 914.399 461.527 900.952 454.898C887.505 448.08 872.259 444.67 855.213 444.67C837.41 444.67 821.88 448.269 808.622 455.466C795.365 462.663 785.137 472.985 777.94 486.432C770.743 499.879 767.145 515.883 767.145 534.443H650.383C650.383 496.375 659.001 463.326 676.236 435.295C693.471 407.265 717.618 385.58 748.679 370.239C779.74 354.898 815.535 347.227 856.065 347.227C897.732 347.227 934.001 354.614 964.872 369.386C995.933 383.97 1020.08 404.235 1037.32 430.182C1054.55 456.129 1063.17 485.864 1063.17 519.386C1063.17 541.356 1058.81 563.042 1050.1 584.443C1041.58 605.845 1026.33 629.614 1004.36 655.75C982.391 681.697 951.425 712.852 911.463 749.216L826.52 832.455V836.432H1070.84V937H656.065Z" fill="white"/>
<path d="M1521.02 944.955C1477.27 944.955 1438.35 937.852 1404.26 923.648C1370.35 909.254 1343.74 889.652 1324.43 864.841C1305.11 840.03 1295.45 811.905 1295.45 780.466C1295.45 756.224 1300.94 733.97 1311.93 713.705C1323.1 693.25 1338.25 676.299 1357.38 662.852C1376.51 649.216 1397.91 640.504 1421.59 636.716V632.739C1390.52 626.489 1365.34 611.432 1346.02 587.568C1326.7 563.515 1317.04 535.58 1317.04 503.761C1317.04 473.648 1325.85 446.848 1343.46 423.364C1361.07 399.689 1385.22 381.129 1415.9 367.682C1446.77 354.045 1481.81 347.227 1521.02 347.227C1560.22 347.227 1595.16 354.045 1625.85 367.682C1656.72 381.318 1680.96 399.974 1698.57 423.648C1716.19 447.133 1725.09 473.837 1725.28 503.761C1725.09 535.769 1715.24 563.705 1695.73 587.568C1676.23 611.432 1651.23 626.489 1620.73 632.739V636.716C1644.03 640.504 1665.15 649.216 1684.09 662.852C1703.21 676.299 1718.37 693.25 1729.54 713.705C1740.9 733.97 1746.68 756.224 1746.87 780.466C1746.68 811.905 1736.93 840.03 1717.61 864.841C1698.29 889.652 1671.59 909.254 1637.49 923.648C1603.59 937.852 1564.77 944.955 1521.02 944.955ZM1521.02 854.614C1540.52 854.614 1557.57 851.11 1572.15 844.102C1586.74 836.905 1598.1 827.057 1606.24 814.557C1614.58 801.867 1618.74 787.284 1618.74 770.807C1618.74 753.951 1614.48 739.083 1605.96 726.205C1597.44 713.136 1585.88 702.909 1571.3 695.523C1556.72 687.947 1539.96 684.159 1521.02 684.159C1502.27 684.159 1485.51 687.947 1470.73 695.523C1455.96 702.909 1444.31 713.136 1435.79 726.205C1427.46 739.083 1423.29 753.951 1423.29 770.807C1423.29 787.284 1427.36 801.867 1435.51 814.557C1443.65 827.057 1455.11 836.905 1469.88 844.102C1484.65 851.11 1501.7 854.614 1521.02 854.614ZM1521.02 594.67C1537.3 594.67 1551.79 591.356 1564.48 584.727C1577.17 578.099 1587.12 568.913 1594.31 557.17C1601.51 545.428 1605.11 531.886 1605.11 516.545C1605.11 501.394 1601.51 488.136 1594.31 476.773C1587.12 465.22 1577.27 456.223 1564.77 449.784C1552.27 443.155 1537.68 439.841 1521.02 439.841C1504.54 439.841 1489.96 443.155 1477.27 449.784C1464.58 456.223 1454.63 465.22 1447.44 476.773C1440.43 488.136 1436.93 501.394 1436.93 516.545C1436.93 531.886 1440.52 545.428 1447.72 557.17C1454.92 568.913 1464.86 578.099 1477.55 584.727C1490.24 591.356 1504.73 594.67 1521.02 594.67Z" fill="white"/>
</svg>
