<svg width="1764" height="498" viewBox="0 0 1764 498" fill="none" xmlns="../../../../../www.w3.org/2000/svg.html">
<path d="M0.740005 487H354.112V406.172H97.6V277.248H320.712V197.756H97.6V90.876H352.108V9.37997H0.740005V487Z" fill="white"/>
<path d="M582.74 497.688C690.288 497.688 768.444 443.58 768.444 346.72C768.444 243.848 688.284 220.468 590.088 199.092C519.28 183.728 485.88 172.372 485.88 133.628C485.88 99.56 519.948 77.516 572.052 77.516C621.484 77.516 658.892 101.564 664.236 149.66H757.088C749.74 53.468 680.268 0.695969 572.72 0.695969C466.508 0.695969 389.688 49.46 389.688 143.648C389.688 243.18 467.844 265.892 553.348 285.264C626.16 301.964 671.584 311.316 671.584 358.076C671.584 402.164 628.164 419.532 578.732 419.532C510.596 419.532 477.864 396.82 471.184 339.372H376.328C379.668 440.24 453.148 497.688 582.74 497.688Z" fill="white"/>
<path d="M805.43 360.748H986.458V282.592H805.43V360.748Z" fill="white"/>
<path d="M1186.1 497.02C1280.29 497.02 1358.44 450.928 1358.44 356.072C1358.44 292.612 1323.71 255.204 1265.59 241.176V239.84C1311.02 225.144 1343.75 195.084 1343.75 143.648C1343.75 67.496 1282.29 20.068 1186.77 20.068C1080.56 20.068 1023.78 80.856 1020.44 171.036H1107.28C1109.28 123.608 1134.66 89.54 1186.77 89.54C1226.85 89.54 1251.56 113.588 1251.56 149.66C1251.56 188.404 1220.84 210.448 1177.42 210.448H1151.36V279.252H1179.42C1235.53 279.252 1263.59 305.972 1263.59 350.06C1263.59 396.82 1233.53 424.208 1182.76 424.208C1119.97 424.208 1095.92 386.132 1092.58 331.356H1005.74C1007.08 431.556 1067.86 497.02 1186.1 497.02Z" fill="white"/>
<path d="M1572.46 497.688C1691.36 497.688 1763.51 404.168 1763.51 258.544C1763.51 111.584 1691.36 19.4 1573.13 19.4C1456.9 19.4 1381.41 112.252 1381.41 258.544C1381.41 404.168 1455.56 497.688 1572.46 497.688ZM1573.13 420.2C1504.99 420.2 1476.27 355.404 1476.27 258.544C1476.27 161.016 1504.99 96.888 1573.13 96.888C1640.6 96.888 1668.65 161.684 1668.65 258.544C1668.65 356.74 1641.26 420.2 1573.13 420.2Z" fill="white"/>
</svg>
